<?xml version="1.0" encoding="utf-8"?>
<!-- Generator: Adobe Illustrator 17.0.0, SVG Export Plug-In . SVG Version: 6.00 Build 0)  -->
<!DOCTYPE svg PUBLIC "-//W3C//DTD SVG 1.1//EN" "http://www.w3.org/Graphics/SVG/1.1/DTD/svg11.dtd">
<svg version="1.1" id="Layer_1" xmlns="http://www.w3.org/2000/svg" xmlns:xlink="http://www.w3.org/1999/xlink" x="0px" y="0px"
	 width="29.348px" height="38.678px" viewBox="0 0 29.348 38.678" enable-background="new 0 0 29.348 38.678" xml:space="preserve">
<path fill="#FFFFFF" d="M23.47,5.208H4.898c-1.037,0-1.881,0.844-1.881,1.88v26.24c0,1.036,0.844,1.88,1.881,1.88H23.47
	c1.037,0,1.881-0.844,1.881-1.88V7.088C25.351,6.051,24.507,5.208,23.47,5.208z M8.373,31.377c-0.936,0-1.694-0.76-1.694-1.695
	s0.759-1.694,1.694-1.694c0.935,0,1.694,0.759,1.694,1.694S9.309,31.377,8.373,31.377z M8.373,25.549
	c-0.936,0-1.694-0.759-1.694-1.694s0.759-1.695,1.694-1.695c0.935,0,1.694,0.76,1.694,1.695S9.309,25.549,8.373,25.549z
	 M8.373,19.723c-0.936,0-1.694-0.76-1.694-1.695s0.759-1.694,1.694-1.694c0.935,0,1.694,0.759,1.694,1.694
	S9.309,19.723,8.373,19.723z M14.2,31.377c-0.935,0-1.694-0.76-1.694-1.695s0.759-1.694,1.694-1.694
	c0.936,0,1.694,0.759,1.694,1.694S15.136,31.377,14.2,31.377z M14.2,25.549c-0.935,0-1.694-0.759-1.694-1.694
	s0.759-1.695,1.694-1.695c0.936,0,1.694,0.76,1.694,1.695S15.136,25.549,14.2,25.549z M14.2,19.723c-0.935,0-1.694-0.76-1.694-1.695
	s0.759-1.694,1.694-1.694c0.936,0,1.694,0.759,1.694,1.694S15.136,19.723,14.2,19.723z M20.028,31.377
	c-0.935,0-1.695-0.76-1.695-1.695s0.76-1.694,1.695-1.694s1.694,0.759,1.694,1.694S20.963,31.377,20.028,31.377z M20.028,25.549
	c-0.935,0-1.695-0.759-1.695-1.694s0.76-1.695,1.695-1.695s1.694,0.76,1.694,1.695S20.963,25.549,20.028,25.549z M20.028,19.723
	c-0.935,0-1.695-0.76-1.695-1.695s0.76-1.694,1.695-1.694s1.694,0.759,1.694,1.694S20.963,19.723,20.028,19.723z M22.217,12.1
	c0,0.482-0.391,0.872-0.871,0.872H7.117c-0.482,0-0.871-0.391-0.871-0.872V9.378c0-0.481,0.39-0.871,0.871-0.871h14.228
	c0.481,0,0.871,0.391,0.871,0.871L22.217,12.1L22.217,12.1z"/>
</svg>
