<?xml version="1.0" encoding="utf-8"?>
<!-- Generator: Adobe Illustrator 17.0.0, SVG Export Plug-In . SVG Version: 6.00 Build 0)  -->
<!DOCTYPE svg PUBLIC "-//W3C//DTD SVG 1.1//EN" "http://www.w3.org/Graphics/SVG/1.1/DTD/svg11.dtd">
<svg version="1.1" id="Layer_1" xmlns="http://www.w3.org/2000/svg" xmlns:xlink="http://www.w3.org/1999/xlink" x="0px" y="0px"
	 width="28.571px" height="27.405px" viewBox="0 0 28.571 27.405" enable-background="new 0 0 28.571 27.405" xml:space="preserve">
<g>
	<path id="trash-can-2-icon" fill="#2F3030" d="M11.857,10.907c0-0.389-0.315-0.705-0.704-0.705s-0.704,0.316-0.704,0.705v8.551
		c0,0.389,0.315,0.705,0.704,0.705s0.704-0.316,0.704-0.705V10.907z M14.705,10.907c0-0.389-0.315-0.705-0.704-0.705
		c-0.389,0-0.704,0.316-0.704,0.705v8.551c0,0.389,0.315,0.705,0.704,0.705c0.389,0,0.704-0.316,0.704-0.705V10.907z M17.553,10.907
		c0-0.389-0.315-0.705-0.704-0.705c-0.389,0-0.704,0.316-0.704,0.705v8.551c0,0.389,0.315,0.705,0.704,0.705
		c0.389,0,0.704-0.316,0.704-0.705V10.907z M19.415,21.729H8.586V8.636H6.943v14.737h14.115V8.636h-1.643L19.415,21.729
		L19.415,21.729z M17.457,5.347c-0.726,0-1.314-0.589-1.314-1.315h-4.284c0,0.727-0.588,1.315-1.314,1.315H6.088v1.879h15.826V5.347
		H17.457z"/>
</g>
</svg>
