<?xml version="1.0" encoding="utf-8"?>
<!-- Generator: Adobe Illustrator 17.0.0, SVG Export Plug-In . SVG Version: 6.00 Build 0)  -->
<!DOCTYPE svg PUBLIC "-//W3C//DTD SVG 1.1//EN" "http://www.w3.org/Graphics/SVG/1.1/DTD/svg11.dtd">
<svg version="1.1" id="Layer_1" xmlns="http://www.w3.org/2000/svg" xmlns:xlink="http://www.w3.org/1999/xlink" x="0px" y="0px"
	 width="200.149px" height="43.709px" viewBox="0 0 200.149 43.709" enable-background="new 0 0 200.149 43.709"
	 xml:space="preserve">
<g>
	<defs>
		<rect id="SVGID_1_" x="16.111" y="7.589" width="168.896" height="28.776"/>
	</defs>
	<clipPath id="SVGID_2_">
		<use xlink:href="#SVGID_1_"  overflow="visible"/>
	</clipPath>
	<path clip-path="url(#SVGID_2_)" fill="#004D6B" d="M19.742,12.448v-2.67h0.507h0.274l0.232,0.01l0.222,0.01l0.18,0.01l0.18,0.021
		l0.158,0.031l0.148,0.031l0.148,0.052l0.106,0.031l0.095,0.042l0.084,0.042l0.084,0.052l0.085,0.063l0.074,0.063l0.063,0.063
		l0.063,0.073l0.053,0.073l0.053,0.084l0.042,0.084l0.032,0.084l0.032,0.094l0.021,0.094l0.011,0.094l0.011,0.105l-0.011,0.094
		l-0.011,0.094l-0.011,0.084l-0.021,0.094l-0.032,0.084l-0.032,0.084l-0.042,0.073l-0.042,0.084l-0.053,0.073l-0.053,0.063
		l-0.063,0.063l-0.074,0.063l-0.074,0.052l-0.074,0.052l-0.084,0.052l-0.095,0.042l-0.148,0.052l-0.148,0.052l-0.169,0.031
		l-0.18,0.031l-0.2,0.021l-0.232,0.01l-0.274,0.01h-0.317H19.742z M19.763,17.966v-3.571h0.771l0.581-0.01l0.538-0.021l0.496-0.031
		l0.454-0.042l0.401-0.052l0.37-0.073l0.169-0.042l0.158-0.042l0.158-0.042l0.137-0.052l0.243-0.105l0.243-0.115l0.211-0.126
		l0.211-0.147l0.19-0.147l0.18-0.157l0.158-0.178l0.148-0.178l0.127-0.189l0.116-0.199l0.095-0.209l0.074-0.209l0.063-0.22
		l0.042-0.23l0.032-0.241l0.011-0.241l-0.011-0.199l-0.011-0.199l-0.032-0.188l-0.032-0.178l-0.053-0.178l-0.053-0.178l-0.074-0.168
		l-0.074-0.157l-0.095-0.157l-0.106-0.157l-0.106-0.147l-0.127-0.136l-0.127-0.136l-0.148-0.126l-0.148-0.115l-0.169-0.115
		l-0.148-0.094l-0.169-0.084l-0.169-0.084l-0.18-0.073l-0.19-0.063l-0.201-0.063L23.511,8.05l-0.222-0.042l-0.243-0.042
		l-0.253-0.042l-0.264-0.031l-0.285-0.021l-0.306-0.021l-0.317-0.01l-0.338-0.01h-0.348h-4.634v10.136H19.763z"/>
	<polygon clip-path="url(#SVGID_2_)" fill="#004D6B" points="35.101,17.966 35.101,13.746 31.132,13.746 31.132,17.966 
		27.691,17.966 27.691,7.83 31.132,7.83 31.132,11.725 35.101,11.725 35.101,7.83 38.542,7.83 38.542,17.966 	"/>
	<path clip-path="url(#SVGID_2_)" fill="#004D6B" d="M48.592,13.956h-3.177l1.436-3.435l0.063-0.157l0.053-0.178l0.053-0.189
		l0.042-0.178l0.042,0.188l0.042,0.178l0.063,0.168l0.063,0.178L48.592,13.956z M54.028,17.966L49.13,7.83h-4.085l-4.856,10.136
		h3.42l1.034-2.147h4.75l0.982,2.147H54.028z"/>
	<path clip-path="url(#SVGID_2_)" fill="#004D6B" d="M59.021,12.113V9.778h1.151h0.264l0.243,0.021l0.232,0.021l0.211,0.031
		l0.201,0.042l0.179,0.052l0.158,0.052l0.148,0.073l0.127,0.073l0.106,0.084l0.095,0.094l0.085,0.105l0.053,0.115l0.042,0.126
		l0.032,0.126l0.011,0.136l-0.011,0.157l-0.021,0.136l-0.042,0.126l-0.053,0.126l-0.063,0.105l-0.085,0.094l-0.095,0.084
		l-0.116,0.084l-0.127,0.063l-0.148,0.063l-0.169,0.042l-0.18,0.042l-0.2,0.031l-0.222,0.021l-0.232,0.01h-0.253H59.021z
		 M59.116,17.966V14.06h0.559h0.222l0.211,0.01l0.201,0.021l0.18,0.031l0.169,0.042l0.148,0.042l0.148,0.063l0.127,0.073
		l0.116,0.084l0.116,0.094l0.106,0.115l0.095,0.126l0.095,0.136l0.084,0.157l0.084,0.168l0.085,0.189l1.024,2.555h3.589
		l-1.288-2.796l-0.274-0.586l-0.232-0.45l-0.106-0.188l-0.095-0.168l-0.106-0.147l-0.095-0.115l-0.106-0.105l-0.106-0.094
		l-0.116-0.073l-0.116-0.063l-0.137-0.052l-0.137-0.052l-0.158-0.042l-0.169-0.042l0.306-0.052l0.285-0.073l0.264-0.084l0.243-0.105
		l0.232-0.105l0.211-0.126l0.095-0.073l0.095-0.063l0.095-0.073l0.084-0.073l0.074-0.084l0.074-0.084l0.074-0.084l0.063-0.094
		l0.053-0.084l0.053-0.094l0.053-0.105l0.042-0.094l0.042-0.105l0.032-0.105l0.032-0.115l0.021-0.105l0.021-0.115l0.011-0.115
		l0.011-0.126v-0.126l-0.011-0.178l-0.011-0.178l-0.032-0.168L65.703,9.84L65.65,9.683l-0.063-0.147L65.513,9.38l-0.095-0.136
		l-0.095-0.136l-0.106-0.136l-0.116-0.126L64.964,8.73l-0.137-0.105l-0.148-0.105L64.51,8.427l-0.169-0.094L64.204,8.27
		l-0.158-0.063l-0.148-0.052l-0.169-0.042L63.56,8.06l-0.18-0.042L63.18,7.987L62.98,7.955l-0.433-0.052l-0.486-0.042L61.534,7.84
		l-0.602-0.01h-5.257v10.136H59.116z"/>
	<polygon clip-path="url(#SVGID_2_)" fill="#004D6B" points="80.904,17.966 80.904,12.668 80.904,12.458 80.904,12.259 
		80.915,12.06 80.915,11.851 80.925,11.641 80.936,11.432 80.957,11.212 80.978,10.971 80.999,10.615 81.02,10.353 81.031,10.123 
		81.031,9.84 80.893,10.175 80.788,10.448 80.672,10.741 80.513,11.16 80.387,11.505 80.271,11.819 80.165,12.123 80.049,12.406 
		79.954,12.657 79.859,12.908 79.764,13.128 79.68,13.348 77.758,17.966 74.655,17.966 72.417,12.573 72.29,12.259 72.153,11.924 
		72.026,11.589 71.9,11.296 71.868,11.212 71.847,11.139 71.784,10.919 71.594,10.353 71.562,10.27 71.52,10.154 71.467,10.008 
		71.403,9.84 71.414,9.987 71.425,10.102 71.446,10.353 71.488,10.887 71.499,11.097 71.52,11.306 71.53,11.526 71.541,11.746 
		71.551,11.976 71.551,12.207 71.562,12.437 71.562,12.668 71.562,17.966 68.342,17.966 68.342,7.83 73.589,7.83 75.003,11.202 
		75.278,11.84 75.499,12.395 75.7,12.888 75.858,13.317 75.995,13.725 76.112,14.113 76.228,14.511 76.323,14.929 76.365,14.71 
		76.397,14.511 76.439,14.343 76.481,14.165 76.587,13.809 76.745,13.38 76.829,13.149 76.893,12.971 76.956,12.825 77.009,12.668 
		77.083,12.5 77.167,12.291 77.283,12.018 77.431,11.662 79.025,7.83 84.25,7.83 84.25,17.966 	"/>
	<path clip-path="url(#SVGID_2_)" fill="#004D6B" d="M94.3,13.956h-3.177l1.436-3.435l0.053-0.157l0.063-0.178l0.053-0.189
		l0.042-0.178l0.042,0.188l0.042,0.178l0.063,0.168l0.063,0.178L94.3,13.956z M99.736,17.966L94.838,7.83h-4.085l-4.856,10.136h3.42
		l1.035-2.147h4.75l0.971,2.147H99.736z"/>
	<polygon clip-path="url(#SVGID_2_)" fill="#004D6B" points="111.39,17.746 110.989,17.862 110.567,17.956 110.144,18.04 
		109.701,18.102 109.226,18.144 108.74,18.186 108.213,18.197 107.664,18.207 107.21,18.197 106.777,18.186 106.355,18.155 
		105.943,18.102 105.542,18.05 105.162,17.977 104.792,17.893 104.434,17.799 104.085,17.694 103.747,17.568 103.431,17.432 
		103.125,17.286 102.829,17.128 102.544,16.95 102.28,16.762 102.037,16.563 101.826,16.385 101.636,16.197 101.446,16.008 
		101.277,15.799 101.119,15.589 100.982,15.369 100.844,15.139 100.728,14.909 100.623,14.668 100.528,14.416 100.454,14.165 
		100.39,13.914 100.338,13.652 100.296,13.39 100.274,13.118 100.274,12.846 100.274,12.552 100.306,12.259 100.338,11.976 
		100.39,11.704 100.464,11.442 100.549,11.181 100.654,10.929 100.76,10.678 100.887,10.448 101.035,10.217 101.193,9.997 
		101.362,9.788 101.541,9.589 101.742,9.39 101.953,9.212 102.175,9.034 102.407,8.866 102.649,8.709 102.913,8.563 103.188,8.427 
		103.473,8.301 103.768,8.186 104.075,8.071 104.391,7.976 104.719,7.893 105.056,7.819 105.405,7.746 105.764,7.694 106.133,7.652 
		106.513,7.62 106.904,7.599 107.305,7.589 107.59,7.589 108.086,7.599 108.571,7.631 109.036,7.673 109.49,7.736 109.944,7.809 
		110.398,7.903 110.841,8.018 111.295,8.154 111.031,10.28 110.588,10.123 110.176,9.987 109.775,9.872 109.384,9.778 
		108.994,9.715 108.614,9.662 108.234,9.631 107.854,9.62 107.632,9.631 107.41,9.641 107.199,9.662 106.988,9.683 106.788,9.715 
		106.587,9.757 106.397,9.798 106.207,9.851 106.027,9.914 105.859,9.976 105.679,10.05 105.521,10.134 105.362,10.217 
		105.215,10.301 105.067,10.406 104.93,10.5 104.803,10.615 104.676,10.72 104.571,10.835 104.455,10.961 104.36,11.086 
		104.265,11.223 104.18,11.359 104.106,11.505 104.032,11.652 103.98,11.799 103.927,11.956 103.885,12.113 103.853,12.27 
		103.832,12.437 103.811,12.605 103.811,12.783 103.811,12.971 103.832,13.149 103.853,13.327 103.885,13.505 103.927,13.673 
		103.98,13.84 104.043,13.998 104.117,14.155 104.191,14.301 104.286,14.448 104.381,14.584 104.486,14.72 104.592,14.846 
		104.719,14.971 104.845,15.087 104.982,15.202 105.13,15.306 105.278,15.401 105.436,15.495 105.605,15.579 105.774,15.662 
		105.954,15.736 106.144,15.799 106.344,15.861 106.545,15.914 106.745,15.966 106.956,16.008 107.178,16.039 107.41,16.06 
		107.643,16.081 107.875,16.092 108.118,16.092 108.487,16.092 108.846,16.071 109.205,16.029 109.564,15.966 109.944,15.893 
		110.334,15.799 110.757,15.673 111.2,15.537 	"/>
	<path clip-path="url(#SVGID_2_)" fill="#004D6B" d="M119.297,9.579h0.158l0.169,0.01l0.148,0.021l0.158,0.031l0.137,0.031
		l0.148,0.042l0.137,0.042l0.137,0.052l0.127,0.063l0.127,0.073l0.116,0.073l0.116,0.084l0.106,0.084l0.106,0.094l0.106,0.105
		l0.095,0.105l0.084,0.105l0.085,0.126l0.084,0.126l0.074,0.126l0.063,0.136l0.063,0.147l0.063,0.147l0.042,0.157l0.053,0.157
		l0.042,0.157l0.032,0.168l0.021,0.178l0.021,0.178l0.021,0.189l0.011,0.189v0.188v0.189l-0.011,0.178l-0.021,0.178l-0.021,0.168
		l-0.021,0.168l-0.032,0.168l-0.042,0.157l-0.053,0.147l-0.042,0.147l-0.063,0.147l-0.063,0.136l-0.063,0.126l-0.074,0.126
		l-0.084,0.126l-0.085,0.115l-0.084,0.105l-0.095,0.105l-0.106,0.094l-0.095,0.094l-0.116,0.084l-0.116,0.073l-0.116,0.073
		l-0.127,0.073l-0.127,0.052l-0.127,0.052l-0.137,0.052l-0.148,0.031l-0.137,0.031l-0.158,0.031l-0.148,0.021l-0.158,0.01h-0.158
		h-0.169l-0.158-0.01l-0.158-0.021l-0.158-0.031l-0.148-0.031l-0.148-0.042l-0.137-0.042l-0.137-0.052l-0.127-0.063l-0.127-0.063
		l-0.127-0.073l-0.116-0.084l-0.106-0.084l-0.106-0.094l-0.106-0.105l-0.095-0.105l-0.095-0.115l-0.085-0.115l-0.074-0.126
		l-0.074-0.126l-0.074-0.136l-0.063-0.147l-0.053-0.147l-0.053-0.147l-0.053-0.157l-0.032-0.168l-0.042-0.168l-0.021-0.178
		l-0.021-0.178l-0.021-0.178l-0.011-0.199v-0.189v-0.188l0.011-0.178l0.021-0.168l0.021-0.178l0.032-0.157l0.032-0.168l0.042-0.157
		l0.053-0.147l0.053-0.147l0.053-0.147l0.063-0.136l0.074-0.136l0.074-0.126l0.084-0.115l0.085-0.115l0.095-0.115l0.095-0.105
		l0.106-0.094l0.106-0.094l0.106-0.084l0.116-0.084l0.127-0.073l0.116-0.063l0.137-0.063l0.127-0.052l0.137-0.042l0.148-0.042
		l0.137-0.031l0.158-0.031l0.148-0.021l0.158-0.01H119.297z M119.212,7.589l-0.348,0.01l-0.348,0.021l-0.338,0.031l-0.327,0.042
		l-0.327,0.052l-0.317,0.073l-0.317,0.073l-0.296,0.084l-0.296,0.094l-0.285,0.115l-0.274,0.115l-0.264,0.126l-0.253,0.136
		l-0.232,0.136l-0.232,0.157l-0.211,0.157l-0.19,0.178l-0.19,0.178l-0.169,0.189l-0.158,0.209l-0.148,0.209l-0.137,0.22l-0.127,0.23
		l-0.116,0.241l-0.095,0.251l-0.084,0.251l-0.074,0.272l-0.063,0.272l-0.053,0.272l-0.032,0.283l-0.021,0.293v0.293v0.314
		l0.021,0.293l0.042,0.293l0.042,0.293l0.063,0.272l0.074,0.272l0.095,0.272l0.095,0.251l0.116,0.251l0.127,0.241l0.137,0.22
		l0.148,0.22l0.169,0.209l0.169,0.199l0.19,0.178l0.19,0.178l0.211,0.157L115,17.118l0.243,0.147l0.253,0.126l0.274,0.126
		l0.285,0.115l0.285,0.105l0.306,0.094l0.317,0.084l0.317,0.084l0.327,0.063l0.338,0.052l0.338,0.042l0.338,0.031l0.348,0.01
		l0.348,0.01l0.369-0.01l0.369-0.021l0.37-0.031l0.359-0.052l0.359-0.063l0.348-0.084l0.338-0.094l0.327-0.105l0.327-0.115
		l0.306-0.126l0.296-0.136l0.285-0.157l0.264-0.157l0.253-0.178l0.232-0.178l0.211-0.189l0.158-0.168l0.148-0.178l0.148-0.178
		l0.127-0.189l0.127-0.199l0.106-0.209l0.106-0.22l0.084-0.22l0.084-0.23l0.074-0.241l0.063-0.241l0.042-0.251l0.042-0.262
		l0.021-0.262l0.021-0.272l0.011-0.272l-0.011-0.283l-0.021-0.272l-0.021-0.272l-0.042-0.272l-0.053-0.251l-0.063-0.262
		l-0.085-0.241l-0.084-0.241l-0.095-0.23l-0.106-0.23l-0.116-0.209l-0.127-0.209l-0.137-0.199l-0.158-0.189l-0.148-0.178
		l-0.169-0.168l-0.211-0.178l-0.232-0.178l-0.232-0.168l-0.253-0.157l-0.274-0.136l-0.285-0.136l-0.285-0.126l-0.306-0.105
		l-0.317-0.105l-0.327-0.084l-0.338-0.073l-0.348-0.063L120.5,7.662l-0.37-0.042l-0.359-0.021l-0.38-0.01H119.212z"/>
	<polygon clip-path="url(#SVGID_2_)" fill="#004D6B" points="127.952,15.484 128.417,15.642 128.871,15.767 129.314,15.872 
		129.747,15.956 130.18,16.029 130.602,16.071 131.024,16.102 131.447,16.113 131.689,16.102 131.911,16.092 132.112,16.071 
		132.312,16.039 132.492,15.998 132.66,15.956 132.819,15.893 132.956,15.83 133.083,15.757 133.188,15.683 133.283,15.6 
		133.357,15.505 133.421,15.401 133.463,15.296 133.494,15.181 133.494,15.066 133.494,14.961 133.484,14.856 133.452,14.772 
		133.421,14.689 133.368,14.605 133.304,14.532 133.231,14.458 133.136,14.395 133.019,14.333 132.893,14.27 132.755,14.207 
		132.587,14.144 132.196,14.029 131.721,13.914 131.119,13.767 130.602,13.631 130.159,13.495 129.789,13.38 129.462,13.254 
		129.177,13.118 128.924,12.982 128.67,12.825 128.544,12.73 128.428,12.636 128.301,12.521 128.195,12.406 128.09,12.291 
		128.005,12.165 127.91,12.039 127.836,11.903 127.763,11.757 127.699,11.62 127.646,11.474 127.604,11.327 127.572,11.181 
		127.551,11.024 127.53,10.877 127.53,10.72 127.53,10.531 127.562,10.343 127.594,10.165 127.646,9.976 127.71,9.798 127.784,9.62 
		127.879,9.453 127.984,9.285 128.1,9.128 128.227,8.971 128.364,8.825 128.522,8.688 128.681,8.552 128.85,8.427 129.04,8.311 
		129.23,8.207 129.388,8.133 129.546,8.071 129.715,8.008 129.895,7.945 130.074,7.893 130.264,7.84 130.454,7.798 130.655,7.757 
		130.866,7.715 131.088,7.683 131.309,7.662 131.552,7.631 132.059,7.599 132.608,7.589 132.967,7.589 133.399,7.599 133.822,7.62 
		134.244,7.652 134.645,7.694 135.057,7.757 135.468,7.83 135.891,7.914 136.334,8.018 136.144,10.06 135.732,9.945 135.352,9.84 
		134.983,9.757 134.613,9.694 134.265,9.641 133.917,9.61 133.568,9.589 133.209,9.579 132.967,9.579 132.734,9.599 132.513,9.62 
		132.312,9.641 132.122,9.683 131.943,9.725 131.784,9.778 131.636,9.84 131.51,9.903 131.394,9.976 131.299,10.05 131.214,10.134 
		131.151,10.228 131.109,10.322 131.077,10.427 131.066,10.531 131.066,10.605 131.077,10.668 131.088,10.73 131.109,10.783 
		131.14,10.846 131.162,10.898 131.204,10.95 131.235,11.003 131.341,11.107 131.457,11.191 131.594,11.275 131.753,11.338 
		131.869,11.38 131.985,11.422 132.122,11.463 132.281,11.505 132.502,11.558 132.787,11.631 133.157,11.715 133.632,11.83 
		134.086,11.945 134.508,12.071 134.888,12.196 135.226,12.333 135.395,12.406 135.542,12.479 135.69,12.552 135.817,12.636 
		135.943,12.71 136.07,12.793 136.176,12.888 136.281,12.971 136.376,13.066 136.471,13.17 136.556,13.264 136.63,13.369 
		136.693,13.484 136.756,13.589 136.82,13.704 136.862,13.83 136.904,13.956 136.946,14.081 136.978,14.217 136.999,14.354 
		137.02,14.5 137.031,14.647 137.041,14.793 137.041,14.961 137.031,15.139 137.02,15.327 136.988,15.505 136.946,15.673 
		136.893,15.84 136.83,16.008 136.756,16.165 136.672,16.322 136.577,16.469 136.471,16.605 136.355,16.741 136.228,16.877 
		136.091,17.003 135.943,17.118 135.785,17.233 135.627,17.338 135.447,17.443 135.257,17.537 135.067,17.631 134.867,17.715 
		134.645,17.788 134.423,17.862 134.191,17.924 133.959,17.987 133.706,18.04 133.452,18.081 133.188,18.123 132.914,18.155 
		132.629,18.176 132.344,18.197 132.048,18.207 131.742,18.207 131.193,18.197 130.655,18.176 130.138,18.134 129.631,18.081 
		129.135,18.008 128.649,17.914 128.153,17.809 127.657,17.694 	"/>
	<polygon clip-path="url(#SVGID_2_)" fill="#004D6B" points="151.968,17.966 151.968,12.668 151.968,12.458 151.978,12.259 
		151.978,12.06 151.989,11.851 151.999,11.641 152.01,11.432 152.02,11.212 152.041,10.971 152.073,10.615 152.094,10.353 
		152.105,10.123 152.105,9.84 151.957,10.175 151.851,10.448 151.735,10.741 151.588,11.16 151.461,11.505 151.345,11.819 
		151.229,12.123 151.123,12.406 151.017,12.657 150.923,12.908 150.828,13.128 150.743,13.348 148.832,17.966 145.729,17.966 
		143.491,12.573 143.354,12.259 143.227,11.924 143.09,11.589 142.974,11.296 142.942,11.212 142.921,11.139 142.847,10.919 
		142.668,10.353 142.636,10.27 142.594,10.154 142.541,10.008 142.478,9.84 142.488,9.987 142.488,10.102 142.509,10.353 
		142.552,10.887 142.573,11.097 142.594,11.306 142.604,11.526 142.615,11.746 142.615,11.976 142.625,12.207 142.625,12.437 
		142.625,12.668 142.625,17.966 139.416,17.966 139.416,7.83 144.663,7.83 146.077,11.202 146.341,11.84 146.573,12.395 
		146.763,12.888 146.932,13.317 147.07,13.725 147.186,14.113 147.291,14.511 147.397,14.929 147.428,14.71 147.471,14.511 
		147.502,14.343 147.545,14.165 147.661,13.809 147.819,13.38 147.893,13.149 147.967,12.971 148.02,12.825 148.083,12.668 
		148.146,12.5 148.241,12.291 148.357,12.018 148.505,11.662 150.089,7.83 155.324,7.83 155.324,17.966 	"/>
	<path clip-path="url(#SVGID_2_)" fill="#004D6B" d="M164.044,9.579h0.169l0.158,0.01l0.158,0.021l0.148,0.031l0.148,0.031
		l0.137,0.042l0.137,0.042l0.137,0.052l0.127,0.063l0.127,0.073l0.116,0.073l0.116,0.084l0.116,0.084l0.095,0.094l0.106,0.105
		l0.095,0.105l0.084,0.105l0.084,0.126l0.085,0.126l0.074,0.126l0.063,0.136l0.063,0.147l0.063,0.147l0.053,0.157l0.042,0.157
		l0.042,0.157l0.032,0.168l0.032,0.178l0.021,0.178l0.011,0.189l0.011,0.189v0.188v0.189l-0.011,0.178l-0.011,0.178l-0.021,0.168
		l-0.032,0.168l-0.032,0.168l-0.042,0.157l-0.042,0.147l-0.053,0.147l-0.063,0.147l-0.053,0.136l-0.074,0.126l-0.074,0.126
		l-0.074,0.126l-0.085,0.115l-0.095,0.105l-0.095,0.105l-0.095,0.094l-0.106,0.094l-0.106,0.084l-0.116,0.073l-0.127,0.073
		l-0.116,0.073l-0.127,0.052l-0.137,0.052l-0.137,0.052l-0.137,0.031l-0.148,0.031l-0.148,0.031l-0.158,0.021l-0.158,0.01h-0.158
		h-0.169l-0.158-0.01l-0.158-0.021l-0.158-0.031l-0.148-0.031l-0.137-0.042l-0.148-0.042l-0.137-0.052l-0.127-0.063l-0.127-0.063
		l-0.116-0.073l-0.116-0.084l-0.116-0.084l-0.105-0.094l-0.106-0.105l-0.095-0.105l-0.084-0.115l-0.085-0.115l-0.084-0.126
		l-0.074-0.126l-0.074-0.136l-0.063-0.147l-0.053-0.147l-0.053-0.147l-0.042-0.157l-0.042-0.168l-0.032-0.168l-0.032-0.178
		l-0.021-0.178l-0.011-0.178l-0.011-0.199l-0.011-0.189l0.011-0.188l0.011-0.178l0.011-0.168l0.021-0.178l0.032-0.157l0.032-0.168
		l0.042-0.157l0.053-0.147l0.053-0.147l0.063-0.147l0.063-0.136l0.063-0.136l0.084-0.126l0.074-0.115l0.085-0.115l0.095-0.115
		l0.095-0.105l0.106-0.094l0.105-0.094l0.116-0.084l0.116-0.084l0.116-0.073l0.127-0.063l0.127-0.063l0.137-0.052l0.137-0.042
		l0.137-0.042l0.148-0.031l0.148-0.031l0.148-0.021l0.158-0.01H164.044z M163.959,7.589l-0.348,0.01l-0.338,0.021l-0.338,0.031
		l-0.338,0.042l-0.327,0.052l-0.317,0.073l-0.306,0.073l-0.306,0.084l-0.296,0.094l-0.285,0.115l-0.274,0.115l-0.253,0.126
		l-0.253,0.136l-0.243,0.136l-0.222,0.157l-0.211,0.157l-0.201,0.178l-0.179,0.178l-0.179,0.189l-0.158,0.209l-0.148,0.209
		l-0.137,0.22l-0.127,0.23l-0.106,0.241l-0.105,0.251l-0.084,0.251l-0.074,0.272l-0.063,0.272l-0.042,0.272l-0.032,0.283
		l-0.021,0.293l-0.011,0.293l0.011,0.314l0.021,0.293l0.032,0.293l0.053,0.293l0.053,0.272l0.085,0.272l0.084,0.272l0.106,0.251
		l0.106,0.251l0.127,0.241l0.137,0.22l0.158,0.22l0.158,0.209l0.169,0.199l0.19,0.178l0.201,0.178l0.2,0.157l0.232,0.147
		l0.243,0.147l0.253,0.126l0.264,0.126l0.285,0.115l0.296,0.105l0.296,0.094l0.317,0.084l0.317,0.084l0.327,0.063l0.338,0.052
		l0.338,0.042l0.338,0.031l0.348,0.01l0.348,0.01l0.369-0.01l0.369-0.021l0.369-0.031l0.359-0.052l0.359-0.063l0.348-0.084
		l0.338-0.094l0.338-0.105l0.317-0.115l0.306-0.126l0.296-0.136l0.285-0.157l0.264-0.157l0.253-0.178l0.232-0.178l0.211-0.189
		l0.158-0.168l0.158-0.178l0.137-0.178l0.127-0.189l0.127-0.199l0.116-0.209l0.095-0.22l0.095-0.22l0.084-0.23l0.063-0.241
		l0.063-0.241l0.053-0.251l0.032-0.262l0.032-0.262l0.011-0.272l0.011-0.272l-0.011-0.283l-0.011-0.272l-0.032-0.272l-0.042-0.272
		l-0.053-0.251l-0.063-0.262l-0.074-0.241l-0.084-0.241l-0.106-0.23l-0.106-0.23l-0.116-0.209l-0.127-0.209l-0.137-0.199
		l-0.148-0.189l-0.158-0.178l-0.169-0.168l-0.211-0.178l-0.222-0.178l-0.243-0.168l-0.253-0.157l-0.274-0.136l-0.274-0.136
		l-0.296-0.126l-0.306-0.105l-0.317-0.105l-0.327-0.084l-0.338-0.073l-0.348-0.063l-0.348-0.042l-0.359-0.042l-0.37-0.021
		l-0.38-0.01H163.959z"/>
	<polygon clip-path="url(#SVGID_2_)" fill="#004D6B" points="172.7,15.484 173.164,15.642 173.618,15.767 174.061,15.872 
		174.505,15.956 174.927,16.029 175.36,16.071 175.782,16.102 176.204,16.113 176.437,16.102 176.658,16.092 176.869,16.071 
		177.059,16.039 177.249,15.998 177.418,15.956 177.566,15.893 177.703,15.83 177.83,15.757 177.936,15.683 178.031,15.6 
		178.115,15.505 178.168,15.401 178.21,15.296 178.242,15.181 178.252,15.066 178.242,14.961 178.231,14.856 178.21,14.772 
		178.168,14.689 178.115,14.605 178.052,14.532 177.978,14.458 177.883,14.395 177.777,14.333 177.651,14.27 177.503,14.207 
		177.334,14.144 176.943,14.029 176.468,13.914 175.866,13.767 175.349,13.631 174.916,13.495 174.536,13.38 174.22,13.254 
		173.935,13.118 173.671,12.982 173.428,12.825 173.301,12.73 173.175,12.636 173.059,12.521 172.943,12.406 172.848,12.291 
		172.752,12.165 172.668,12.039 172.584,11.903 172.52,11.757 172.457,11.62 172.404,11.474 172.362,11.327 172.32,11.181 
		172.299,11.024 172.288,10.877 172.277,10.72 172.288,10.531 172.309,10.343 172.341,10.165 172.394,9.976 172.457,9.798 
		172.541,9.62 172.626,9.453 172.731,9.285 172.848,9.128 172.974,8.971 173.122,8.825 173.27,8.688 173.428,8.552 173.607,8.427 
		173.787,8.311 173.977,8.207 174.135,8.133 174.304,8.071 174.473,8.008 174.642,7.945 174.822,7.893 175.011,7.84 175.201,7.798 
		175.402,7.757 175.613,7.715 175.835,7.683 176.067,7.662 176.299,7.631 176.806,7.599 177.355,7.589 177.714,7.589 178.157,7.599 
		178.579,7.62 178.991,7.652 179.403,7.694 179.804,7.757 180.226,7.83 180.648,7.914 181.081,8.018 180.891,10.06 180.49,9.945 
		180.1,9.84 179.73,9.757 179.371,9.694 179.012,9.641 178.664,9.61 178.316,9.589 177.967,9.579 177.714,9.579 177.482,9.599 
		177.27,9.62 177.059,9.641 176.869,9.683 176.7,9.725 176.532,9.778 176.384,9.84 176.257,9.903 176.141,9.976 176.046,10.05 
		175.962,10.134 175.898,10.228 175.856,10.322 175.824,10.427 175.824,10.531 175.824,10.605 175.835,10.668 175.845,10.73 
		175.866,10.783 175.888,10.846 175.919,10.898 175.951,10.95 175.993,11.003 176.088,11.107 176.204,11.191 176.352,11.275 
		176.51,11.338 176.627,11.38 176.743,11.422 176.869,11.463 177.038,11.505 177.249,11.558 177.534,11.631 177.904,11.715 
		178.379,11.83 178.833,11.945 179.234,12.06 179.614,12.186 179.952,12.322 180.11,12.385 180.258,12.458 180.406,12.531 
		180.532,12.615 180.659,12.689 180.786,12.772 180.891,12.856 180.997,12.94 181.092,13.034 181.187,13.128 181.271,13.223 
		181.345,13.327 181.419,13.432 181.482,13.537 181.535,13.652 181.588,13.767 181.63,13.882 181.672,14.008 181.704,14.134 
		181.736,14.27 181.757,14.406 181.767,14.542 181.788,14.689 181.788,14.846 181.788,15.055 181.778,15.233 181.757,15.411 
		181.725,15.579 181.672,15.746 181.62,15.914 181.556,16.071 181.482,16.228 181.387,16.375 181.292,16.521 181.187,16.657 
		181.071,16.783 180.944,16.909 180.807,17.034 180.659,17.149 180.501,17.265 180.332,17.369 180.152,17.464 179.973,17.558 
		179.772,17.642 179.572,17.725 179.361,17.799 179.139,17.872 178.907,17.935 178.674,17.987 178.432,18.04 178.178,18.081 
		177.914,18.123 177.64,18.155 177.366,18.176 177.081,18.197 176.785,18.207 176.489,18.207 175.94,18.197 175.402,18.176 
		174.895,18.134 174.389,18.081 173.892,18.008 173.396,17.914 172.9,17.809 172.415,17.694 	"/>
	<polygon clip-path="url(#SVGID_2_)" fill="#0095D2" points="20.344,28.228 21.568,28.616 21.494,28.857 21.399,29.087 
		21.304,29.296 21.188,29.495 21.072,29.684 20.935,29.841 20.787,29.988 20.629,30.124 20.46,30.239 20.28,30.344 20.09,30.427 
		19.89,30.49 19.668,30.543 19.446,30.584 19.214,30.605 18.961,30.616 18.813,30.616 18.665,30.605 18.518,30.584 18.37,30.563 
		18.233,30.532 18.095,30.501 17.958,30.459 17.831,30.406 17.705,30.354 17.578,30.291 17.462,30.218 17.346,30.145 17.23,30.061 
		17.124,29.967 17.019,29.872 16.913,29.768 16.818,29.663 16.723,29.548 16.639,29.433 16.565,29.307 16.491,29.181 16.427,29.045 
		16.364,28.909 16.311,28.773 16.269,28.626 16.227,28.469 16.185,28.312 16.164,28.155 16.142,27.987 16.121,27.82 16.111,27.642 
		16.111,27.453 16.111,27.265 16.121,27.076 16.142,26.898 16.164,26.731 16.185,26.553 16.227,26.396 16.269,26.239 16.311,26.082 
		16.364,25.935 16.427,25.788 16.491,25.652 16.565,25.516 16.649,25.391 16.734,25.275 16.818,25.16 16.924,25.045 17.019,24.94 
		17.124,24.846 17.24,24.752 17.356,24.668 17.472,24.595 17.599,24.521 17.726,24.459 17.852,24.406 17.99,24.354 18.127,24.312 
		18.275,24.27 18.412,24.249 18.57,24.218 18.718,24.207 18.876,24.197 19.045,24.186 19.183,24.197 19.32,24.197 19.457,24.218 
		19.594,24.228 19.721,24.26 19.848,24.281 19.964,24.322 20.08,24.354 20.196,24.406 20.312,24.459 20.418,24.511 20.523,24.574 
		20.629,24.637 20.724,24.71 20.819,24.783 20.914,24.867 21.009,24.972 21.114,25.087 21.199,25.213 21.283,25.349 21.357,25.495 
		21.431,25.652 21.494,25.83 21.547,26.008 20.302,26.302 20.27,26.186 20.228,26.082 20.185,25.977 20.122,25.872 20.069,25.778 
		19.995,25.694 19.922,25.621 19.837,25.548 19.742,25.474 19.647,25.422 19.552,25.37 19.446,25.328 19.33,25.307 19.225,25.275 
		19.098,25.265 18.982,25.265 18.813,25.265 18.644,25.296 18.496,25.328 18.349,25.391 18.211,25.453 18.085,25.537 17.958,25.642 
		17.852,25.757 17.8,25.82 17.747,25.893 17.705,25.966 17.663,26.05 17.589,26.218 17.525,26.406 17.472,26.616 17.441,26.846 
		17.42,27.097 17.42,27.37 17.42,27.652 17.441,27.914 17.472,28.155 17.525,28.375 17.578,28.574 17.652,28.752 17.694,28.836 
		17.736,28.909 17.789,28.982 17.842,29.045 17.948,29.16 18.074,29.265 18.201,29.349 18.338,29.422 18.475,29.474 18.623,29.516 
		18.781,29.537 18.95,29.548 19.077,29.537 19.193,29.527 19.309,29.495 19.425,29.464 19.531,29.422 19.626,29.37 19.732,29.296 
		19.816,29.223 19.911,29.139 19.985,29.045 20.059,28.94 20.133,28.815 20.196,28.689 20.249,28.542 20.302,28.396 	"/>
	<path clip-path="url(#SVGID_2_)" fill="#0095D2" d="M22.74,28.197V28.05l0.011-0.147l0.021-0.147l0.032-0.147l0.042-0.147
		l0.053-0.136l0.063-0.136l0.063-0.147l0.084-0.136l0.084-0.126l0.095-0.115l0.095-0.115l0.106-0.094l0.116-0.094l0.127-0.084
		l0.127-0.084l0.137-0.063l0.148-0.063l0.148-0.052l0.148-0.042l0.148-0.031l0.158-0.021l0.158-0.01l0.169-0.01l0.127,0.01h0.127
		l0.116,0.021l0.116,0.01l0.116,0.031l0.116,0.021l0.106,0.031l0.116,0.042l0.095,0.042l0.106,0.052l0.095,0.052l0.095,0.063
		l0.095,0.063l0.095,0.073l0.085,0.073l0.084,0.084l0.074,0.084l0.074,0.084l0.074,0.094l0.063,0.084l0.063,0.094l0.053,0.105
		l0.042,0.094l0.042,0.105l0.042,0.105l0.032,0.115l0.032,0.115l0.021,0.105l0.021,0.126l0.011,0.115l0.011,0.126v0.126v0.126
		l-0.011,0.126l-0.011,0.115l-0.021,0.115l-0.021,0.115l-0.032,0.115l-0.032,0.115l-0.042,0.105l-0.042,0.105l-0.053,0.105
		L27.1,29.485l-0.053,0.094l-0.074,0.094l-0.063,0.094l-0.074,0.084l-0.084,0.084l-0.084,0.084l-0.085,0.084l-0.095,0.063
		l-0.084,0.073l-0.095,0.052l-0.106,0.063l-0.095,0.042l-0.106,0.052l-0.106,0.031l-0.106,0.042l-0.116,0.021l-0.116,0.031
		l-0.116,0.01l-0.116,0.021H25.21l-0.127,0.01l-0.158-0.01l-0.158-0.01l-0.148-0.021l-0.148-0.031l-0.148-0.042l-0.148-0.042
		l-0.148-0.063l-0.137-0.063l-0.137-0.073l-0.127-0.084L23.5,30.082l-0.106-0.094l-0.106-0.105l-0.095-0.115l-0.084-0.126
		l-0.084-0.126l-0.063-0.147l-0.063-0.147l-0.053-0.147l-0.042-0.168l-0.032-0.168l-0.021-0.168l-0.011-0.189V28.197z M23.964,28.26
		v0.168l0.021,0.147l0.021,0.147l0.042,0.126l0.042,0.126l0.053,0.115l0.063,0.105l0.074,0.094l0.084,0.084l0.085,0.073l0.095,0.063
		l0.095,0.042l0.106,0.042l0.106,0.031l0.106,0.01l0.116,0.01l0.116-0.01l0.116-0.01l0.106-0.031l0.095-0.042l0.095-0.042
		l0.095-0.063l0.084-0.073l0.085-0.084l0.074-0.094l0.063-0.105l0.053-0.115l0.053-0.126l0.032-0.136l0.021-0.136l0.021-0.157
		v-0.168v-0.157l-0.021-0.157l-0.021-0.136l-0.032-0.136l-0.053-0.115l-0.053-0.115l-0.063-0.105l-0.074-0.094L25.78,27.15
		l-0.084-0.073l-0.095-0.063l-0.095-0.052l-0.095-0.031l-0.106-0.031l-0.116-0.01l-0.116-0.01l-0.116,0.01l-0.106,0.01l-0.106,0.031
		l-0.106,0.031l-0.095,0.052l-0.095,0.063l-0.085,0.073l-0.084,0.084l-0.074,0.094l-0.063,0.105l-0.053,0.115l-0.042,0.126
		l-0.042,0.126l-0.021,0.147l-0.021,0.147V28.26z"/>
	<polygon clip-path="url(#SVGID_2_)" fill="#0095D2" points="28.63,26.008 29.739,26.008 29.739,26.626 29.897,26.459 
		30.055,26.312 30.129,26.249 30.214,26.186 30.309,26.134 30.393,26.082 30.478,26.04 30.573,26.008 30.668,25.977 30.763,25.956 
		30.858,25.935 30.953,25.914 31.058,25.914 31.153,25.904 31.259,25.914 31.364,25.914 31.47,25.935 31.565,25.956 31.649,25.977 
		31.744,26.008 31.829,26.04 31.913,26.082 31.987,26.134 32.061,26.186 32.135,26.249 32.198,26.312 32.262,26.375 32.325,26.459 
		32.388,26.532 32.441,26.626 32.589,26.459 32.747,26.312 32.832,26.249 32.916,26.186 33,26.134 33.085,26.082 33.169,26.04 
		33.254,26.008 33.349,25.977 33.444,25.956 33.528,25.935 33.623,25.914 33.718,25.914 33.824,25.904 33.94,25.914 34.067,25.914 
		34.172,25.935 34.278,25.956 34.383,25.987 34.489,26.019 34.573,26.061 34.668,26.113 34.753,26.165 34.827,26.218 34.901,26.281 
		34.974,26.354 35.027,26.438 35.091,26.521 35.143,26.605 35.186,26.699 35.217,26.773 35.238,26.867 35.259,26.961 35.281,27.076 
		35.302,27.328 35.312,27.631 35.312,30.511 34.109,30.511 34.109,27.935 34.098,27.631 34.077,27.391 34.056,27.286 34.035,27.202 
		34.014,27.129 33.982,27.076 33.94,27.014 33.887,26.961 33.834,26.919 33.771,26.877 33.708,26.857 33.634,26.836 33.549,26.825 
		33.476,26.815 33.349,26.825 33.222,26.857 33.106,26.909 33,26.972 32.948,27.014 32.895,27.056 32.853,27.108 32.81,27.16 
		32.768,27.213 32.737,27.275 32.705,27.349 32.673,27.422 32.631,27.59 32.599,27.799 32.578,28.05 32.578,28.354 32.578,30.511 
		31.375,30.511 31.375,28.04 31.375,27.747 31.364,27.506 31.343,27.317 31.312,27.192 31.28,27.108 31.227,27.024 31.174,26.961 
		31.111,26.909 31.037,26.867 30.953,26.846 30.858,26.825 30.752,26.815 30.615,26.825 30.488,26.857 30.362,26.898 30.245,26.972 
		30.193,27.003 30.15,27.045 30.098,27.097 30.055,27.15 30.024,27.202 29.992,27.265 29.96,27.328 29.929,27.391 29.886,27.558 
		29.855,27.768 29.844,28.019 29.834,28.323 29.834,30.511 28.63,30.511 	"/>
	<polygon clip-path="url(#SVGID_2_)" fill="#0095D2" points="36.78,26.008 37.888,26.008 37.888,26.626 38.036,26.459 
		38.205,26.312 38.279,26.249 38.363,26.186 38.447,26.134 38.542,26.082 38.627,26.04 38.722,26.008 38.817,25.977 38.912,25.956 
		39.007,25.935 39.102,25.914 39.197,25.914 39.302,25.904 39.408,25.914 39.514,25.914 39.609,25.935 39.714,25.956 39.799,25.977 
		39.894,26.008 39.978,26.04 40.062,26.082 40.136,26.134 40.21,26.186 40.284,26.249 40.348,26.312 40.411,26.375 40.474,26.459 
		40.527,26.532 40.58,26.626 40.738,26.459 40.896,26.312 40.981,26.249 41.055,26.186 41.139,26.134 41.234,26.082 41.319,26.04 
		41.403,26.008 41.498,25.977 41.583,25.956 41.678,25.935 41.773,25.914 41.868,25.914 41.973,25.904 42.089,25.914 42.205,25.914 
		42.322,25.935 42.427,25.956 42.533,25.987 42.628,26.019 42.723,26.061 42.818,26.113 42.902,26.165 42.976,26.218 43.05,26.281 
		43.113,26.354 43.177,26.438 43.24,26.521 43.282,26.605 43.335,26.699 43.356,26.773 43.388,26.867 43.409,26.961 43.43,27.076 
		43.451,27.328 43.462,27.631 43.462,30.511 42.258,30.511 42.258,27.935 42.248,27.631 42.227,27.391 42.205,27.286 42.184,27.202 
		42.163,27.129 42.131,27.076 42.089,27.014 42.036,26.961 41.984,26.919 41.92,26.877 41.857,26.857 41.783,26.836 41.699,26.825 
		41.614,26.815 41.498,26.825 41.372,26.857 41.255,26.909 41.15,26.972 41.086,27.014 41.044,27.056 40.991,27.108 40.949,27.16 
		40.918,27.213 40.886,27.275 40.854,27.349 40.823,27.422 40.78,27.59 40.749,27.799 40.727,28.05 40.727,28.354 40.727,30.511 
		39.524,30.511 39.524,28.04 39.524,27.747 39.514,27.506 39.492,27.317 39.461,27.192 39.429,27.108 39.376,27.024 39.324,26.961 
		39.26,26.909 39.186,26.867 39.102,26.846 39.007,26.825 38.901,26.815 38.764,26.825 38.637,26.857 38.511,26.898 38.395,26.972 
		38.342,27.003 38.289,27.045 38.247,27.097 38.205,27.15 38.173,27.202 38.131,27.265 38.11,27.328 38.078,27.391 38.036,27.558 
		38.004,27.768 37.994,28.019 37.983,28.323 37.983,30.511 36.78,30.511 	"/>
	<path clip-path="url(#SVGID_2_)" fill="#0095D2" d="M45.024,24.302h1.193v1.099h-1.193V24.302z M45.024,26.008h1.193v4.503h-1.193
		V26.008z"/>
	<polygon clip-path="url(#SVGID_2_)" fill="#0095D2" points="49.901,26.008 49.901,26.961 49.077,26.961 49.077,28.773 
		49.077,29.024 49.088,29.213 49.088,29.338 49.098,29.412 49.12,29.453 49.141,29.495 49.172,29.537 49.215,29.569 49.257,29.59 
		49.299,29.611 49.352,29.621 49.415,29.621 49.5,29.621 49.616,29.6 49.742,29.558 49.89,29.506 49.996,30.438 49.89,30.48 
		49.785,30.511 49.669,30.543 49.552,30.563 49.426,30.584 49.31,30.605 49.183,30.605 49.046,30.616 48.887,30.605 48.74,30.584 
		48.602,30.553 48.465,30.501 48.338,30.448 48.233,30.375 48.149,30.302 48.085,30.228 48.022,30.134 47.98,30.019 47.937,29.893 
		47.916,29.757 47.895,29.631 47.885,29.443 47.874,29.213 47.874,28.919 47.874,26.961 47.325,26.961 47.325,26.008 47.874,26.008 
		47.874,25.118 49.077,24.417 49.077,26.008 	"/>
	<polygon clip-path="url(#SVGID_2_)" fill="#0095D2" points="53.184,26.008 53.184,26.961 52.36,26.961 52.36,28.773 52.36,29.024 
		52.371,29.213 52.371,29.338 52.381,29.412 52.403,29.453 52.424,29.495 52.455,29.537 52.487,29.569 52.529,29.59 52.582,29.611 
		52.635,29.621 52.698,29.621 52.783,29.621 52.899,29.6 53.025,29.558 53.173,29.506 53.279,30.438 53.173,30.48 53.068,30.511 
		52.952,30.543 52.835,30.563 52.709,30.584 52.593,30.605 52.466,30.605 52.329,30.616 52.17,30.605 52.023,30.584 51.875,30.553 
		51.748,30.501 51.621,30.448 51.516,30.375 51.431,30.302 51.357,30.228 51.305,30.134 51.263,30.019 51.22,29.893 51.199,29.757 
		51.178,29.631 51.168,29.443 51.157,29.213 51.157,28.919 51.157,26.961 50.608,26.961 50.608,26.008 51.157,26.008 51.157,25.118 
		52.36,24.417 52.36,26.008 	"/>
	<path clip-path="url(#SVGID_2_)" fill="#0095D2" d="M57.005,29.076l1.203,0.199l-0.063,0.157l-0.074,0.147l-0.074,0.147
		l-0.095,0.126l-0.095,0.115l-0.095,0.115l-0.116,0.094L57.48,30.27l-0.137,0.084l-0.127,0.063l-0.148,0.063l-0.148,0.052
		l-0.169,0.031l-0.158,0.031l-0.18,0.01l-0.179,0.01l-0.148-0.01h-0.148l-0.127-0.021l-0.137-0.021l-0.127-0.021l-0.116-0.042
		l-0.116-0.031L55.2,30.417l-0.106-0.052l-0.106-0.052l-0.095-0.063l-0.095-0.073l-0.084-0.073l-0.084-0.073l-0.074-0.094
		l-0.074-0.094l-0.106-0.157l-0.095-0.168l-0.074-0.178l-0.063-0.189l-0.053-0.199l-0.032-0.209l-0.021-0.22l-0.011-0.23
		l0.011-0.272l0.032-0.251l0.021-0.126l0.021-0.115l0.032-0.115l0.032-0.115l0.042-0.105l0.042-0.105l0.053-0.105l0.053-0.094
		l0.053-0.094l0.063-0.084l0.063-0.084l0.074-0.084l0.074-0.073l0.074-0.073l0.085-0.073l0.084-0.063l0.084-0.052l0.085-0.052
		l0.095-0.042l0.084-0.042l0.095-0.042l0.095-0.031l0.106-0.031l0.095-0.021l0.211-0.031l0.222-0.01l0.127,0.01h0.127l0.116,0.021
		l0.116,0.01l0.106,0.031l0.116,0.021l0.095,0.031l0.106,0.042l0.095,0.042l0.095,0.052l0.095,0.052l0.085,0.063l0.084,0.063
		l0.084,0.073l0.084,0.073l0.074,0.084l0.063,0.084l0.074,0.094l0.053,0.094l0.063,0.105l0.053,0.105l0.042,0.115l0.042,0.115
		l0.042,0.126l0.032,0.126l0.021,0.136l0.032,0.147l0.011,0.147l0.021,0.304l0.011,0.335h-3.009v0.126l0.021,0.126l0.021,0.115
		l0.032,0.105l0.042,0.094l0.053,0.094l0.053,0.084l0.063,0.073l0.074,0.073l0.074,0.063l0.084,0.052l0.084,0.042l0.084,0.031
		l0.095,0.021l0.095,0.01l0.106,0.01l0.137-0.01l0.116-0.031l0.063-0.021l0.053-0.031l0.053-0.031l0.053-0.031l0.042-0.042
		l0.042-0.042l0.042-0.052l0.042-0.063l0.063-0.136L57.005,29.076z M57.079,27.872l-0.011-0.126l-0.011-0.115l-0.021-0.115
		l-0.032-0.094l-0.042-0.094l-0.042-0.094l-0.053-0.073l-0.063-0.073l-0.063-0.063l-0.074-0.052l-0.063-0.052l-0.084-0.031
		l-0.074-0.031l-0.084-0.021l-0.084-0.01l-0.095-0.01l-0.095,0.01l-0.095,0.01l-0.085,0.021l-0.084,0.031l-0.074,0.042l-0.074,0.052
		l-0.074,0.052l-0.063,0.063l-0.063,0.084l-0.053,0.073l-0.042,0.094l-0.032,0.084l-0.032,0.105l-0.021,0.105l-0.011,0.115v0.115
		H57.079z"/>
	<path clip-path="url(#SVGID_2_)" fill="#0095D2" d="M63.771,30.511h-1.108v-0.66l-0.074,0.094l-0.074,0.084l-0.074,0.084
		l-0.085,0.073l-0.084,0.063l-0.084,0.063l-0.095,0.063l-0.084,0.052l-0.095,0.042l-0.095,0.042l-0.095,0.031l-0.095,0.021
		l-0.095,0.021l-0.095,0.01l-0.095,0.01l-0.106,0.01l-0.19-0.01l-0.18-0.031l-0.18-0.052l-0.169-0.063l-0.169-0.094l-0.158-0.105
		l-0.148-0.126l-0.148-0.147l-0.063-0.084l-0.063-0.084l-0.053-0.084l-0.063-0.094l-0.042-0.094l-0.053-0.105l-0.042-0.094
		l-0.032-0.115l-0.063-0.22l-0.042-0.241l-0.021-0.262l-0.011-0.272l0.011-0.272l0.021-0.262l0.042-0.241l0.063-0.23l0.032-0.105
		l0.042-0.105l0.042-0.094l0.053-0.094l0.053-0.094l0.053-0.084l0.063-0.073l0.063-0.084l0.137-0.136l0.148-0.126l0.158-0.094
		l0.169-0.084l0.179-0.073l0.18-0.042l0.201-0.031l0.2-0.01l0.19,0.01l0.18,0.031l0.169,0.052l0.169,0.063l0.169,0.094l0.148,0.105
		l0.148,0.126l0.148,0.147v-2.241h1.193V30.511z M60.573,28.165v0.168l0.011,0.168l0.021,0.147l0.021,0.136l0.021,0.126l0.042,0.115
		l0.032,0.094l0.053,0.084l0.074,0.115l0.084,0.094l0.095,0.073l0.095,0.073l0.106,0.052l0.106,0.031l0.127,0.021l0.127,0.01
		l0.095-0.01l0.106-0.01l0.095-0.031l0.084-0.042l0.084-0.042l0.084-0.063l0.074-0.073l0.084-0.084l0.063-0.084l0.063-0.105
		l0.042-0.115l0.042-0.126l0.032-0.136l0.021-0.147l0.021-0.157v-0.168v-0.188l-0.021-0.178l-0.021-0.157l-0.032-0.147l-0.032-0.136
		l-0.053-0.115l-0.053-0.105l-0.074-0.094l-0.063-0.084l-0.084-0.063l-0.085-0.063l-0.084-0.052l-0.095-0.031l-0.095-0.031
		l-0.106-0.01l-0.106-0.01l-0.106,0.01l-0.095,0.01l-0.106,0.031l-0.084,0.031l-0.084,0.052l-0.084,0.052l-0.085,0.073l-0.074,0.084
		l-0.063,0.084l-0.063,0.105l-0.042,0.105l-0.042,0.126l-0.032,0.126l-0.021,0.147l-0.021,0.147V28.165z"/>
	<polygon clip-path="url(#SVGID_2_)" fill="#0095D2" points="70.211,26.008 70.211,26.961 69.387,26.961 69.387,28.773 
		69.387,29.024 69.387,29.213 69.398,29.338 69.408,29.412 69.429,29.453 69.451,29.495 69.482,29.537 69.514,29.569 69.556,29.59 
		69.609,29.611 69.662,29.621 69.714,29.621 69.81,29.621 69.926,29.6 70.052,29.558 70.2,29.506 70.306,30.438 70.2,30.48 
		70.084,30.511 69.978,30.543 69.862,30.563 69.736,30.584 69.609,30.605 69.482,30.605 69.356,30.616 69.197,30.605 69.05,30.584 
		68.902,30.553 68.775,30.501 68.648,30.448 68.543,30.375 68.458,30.302 68.385,30.228 68.332,30.134 68.289,30.019 68.247,29.893 
		68.216,29.757 68.205,29.631 68.194,29.443 68.184,29.213 68.184,28.919 68.184,26.961 67.624,26.961 67.624,26.008 68.184,26.008 
		68.184,25.118 69.387,24.417 69.387,26.008 	"/>
	<path clip-path="url(#SVGID_2_)" fill="#0095D2" d="M71.129,28.197l0.011-0.147l0.011-0.147l0.021-0.147l0.032-0.147l0.042-0.147
		l0.053-0.136l0.053-0.136l0.074-0.147l0.074-0.136l0.084-0.126l0.095-0.115l0.106-0.115l0.106-0.094l0.116-0.094l0.127-0.084
		l0.127-0.084l0.137-0.063l0.137-0.063l0.148-0.052l0.148-0.042l0.158-0.031l0.158-0.021l0.158-0.01l0.158-0.01l0.127,0.01h0.127
		l0.127,0.021l0.116,0.01l0.116,0.031l0.116,0.021l0.106,0.031l0.106,0.042l0.106,0.042l0.106,0.052l0.095,0.052l0.095,0.063
		l0.095,0.063l0.084,0.073l0.084,0.073l0.085,0.084l0.084,0.084l0.074,0.084l0.074,0.094l0.063,0.084l0.053,0.094l0.053,0.105
		l0.053,0.094l0.042,0.105l0.042,0.105l0.032,0.115l0.032,0.115l0.021,0.105l0.011,0.126l0.021,0.115v0.126l0.011,0.126
		l-0.011,0.126v0.126l-0.021,0.115l-0.011,0.115l-0.032,0.115l-0.021,0.115l-0.032,0.115l-0.042,0.105l-0.042,0.105l-0.053,0.105
		l-0.053,0.094l-0.063,0.094l-0.063,0.094l-0.074,0.094l-0.074,0.084l-0.074,0.084l-0.085,0.084l-0.095,0.084l-0.084,0.063
		l-0.095,0.073l-0.095,0.052l-0.095,0.063l-0.106,0.042l-0.095,0.052l-0.106,0.031l-0.116,0.042l-0.106,0.021l-0.116,0.031
		l-0.116,0.01l-0.116,0.021h-0.127l-0.127,0.01l-0.148-0.01l-0.158-0.01l-0.148-0.021l-0.158-0.031l-0.148-0.042l-0.137-0.042
		l-0.148-0.063l-0.137-0.063l-0.148-0.073l-0.127-0.084L71.9,30.082l-0.116-0.094l-0.095-0.105l-0.095-0.115l-0.095-0.126
		l-0.074-0.126l-0.074-0.147l-0.053-0.147l-0.053-0.147l-0.042-0.168l-0.032-0.168l-0.021-0.168l-0.011-0.189L71.129,28.197z
		 M72.364,28.26v0.168l0.011,0.147l0.032,0.147l0.032,0.126l0.042,0.126l0.063,0.115l0.063,0.105l0.074,0.094l0.084,0.084
		l0.085,0.073l0.095,0.063l0.095,0.042l0.095,0.042l0.106,0.031l0.116,0.01l0.116,0.01l0.116-0.01l0.106-0.01L73.8,29.59
		l0.106-0.042L74,29.506l0.095-0.063l0.084-0.073l0.074-0.084l0.084-0.094l0.063-0.105l0.053-0.115l0.042-0.126l0.032-0.136
		l0.032-0.136l0.011-0.157l0.011-0.168l-0.011-0.157l-0.011-0.157l-0.032-0.136l-0.032-0.136l-0.042-0.115l-0.053-0.115
		l-0.063-0.105l-0.084-0.094L74.18,27.15l-0.084-0.073L74,27.014l-0.095-0.052L73.8,26.93l-0.105-0.031l-0.106-0.01l-0.116-0.01
		l-0.116,0.01l-0.116,0.01l-0.106,0.031l-0.095,0.031l-0.095,0.052l-0.095,0.063l-0.085,0.073l-0.084,0.084l-0.074,0.094
		l-0.063,0.105l-0.063,0.115l-0.042,0.126l-0.032,0.126l-0.032,0.147l-0.011,0.147V28.26z"/>
	<path clip-path="url(#SVGID_2_)" fill="#0095D2" d="M84.968,29.726l0.232,0.157l0.253,0.136l0.253,0.126l0.274,0.105l-0.464,0.88
		l-0.148-0.042l-0.137-0.052l-0.137-0.063l-0.137-0.073l-0.074-0.042l-0.169-0.105l-0.253-0.168l-0.348-0.23l-0.158,0.063
		l-0.158,0.052l-0.158,0.042l-0.169,0.042l-0.179,0.021l-0.169,0.021l-0.19,0.021h-0.179h-0.18l-0.169-0.01l-0.169-0.021
		l-0.169-0.021l-0.158-0.031l-0.148-0.031l-0.148-0.042l-0.148-0.052l-0.137-0.052l-0.137-0.063l-0.127-0.073l-0.127-0.073
		l-0.116-0.084l-0.116-0.094l-0.105-0.094l-0.106-0.094l-0.106-0.115l-0.095-0.115l-0.084-0.115l-0.074-0.126l-0.074-0.126
		l-0.074-0.136l-0.053-0.136l-0.063-0.147l-0.042-0.157l-0.042-0.157l-0.032-0.157l-0.032-0.168l-0.021-0.168l-0.021-0.178
		l-0.011-0.189v-0.188v-0.189l0.011-0.178l0.021-0.178l0.021-0.168l0.032-0.168l0.032-0.168l0.042-0.157l0.053-0.147l0.053-0.147
		l0.053-0.136l0.074-0.136l0.074-0.126l0.074-0.126l0.095-0.126l0.084-0.115l0.106-0.105l0.106-0.105l0.105-0.094l0.116-0.084
		l0.116-0.084l0.127-0.073l0.127-0.073l0.127-0.063l0.137-0.052l0.148-0.052l0.148-0.042l0.148-0.042l0.158-0.031l0.158-0.021
		l0.158-0.01l0.169-0.01l0.18-0.01l0.169,0.01l0.169,0.01l0.158,0.01l0.158,0.021l0.158,0.031l0.148,0.042l0.148,0.042l0.137,0.052
		l0.137,0.052l0.127,0.063l0.127,0.073l0.127,0.073l0.116,0.084l0.116,0.084l0.106,0.094l0.106,0.105l0.095,0.105l0.095,0.115
		L85.2,25.38l0.085,0.126l0.074,0.126l0.063,0.136l0.063,0.136l0.053,0.147l0.042,0.147l0.042,0.157l0.042,0.168l0.021,0.168
		l0.032,0.168l0.011,0.178l0.011,0.178v0.189V27.6l-0.011,0.188l-0.021,0.189l-0.021,0.178l-0.032,0.178l-0.042,0.168l-0.042,0.168
		l-0.053,0.147l-0.053,0.126l-0.053,0.115l-0.053,0.105l-0.063,0.115l-0.074,0.115l-0.074,0.115l-0.084,0.105L84.968,29.726z
		 M83.955,29.014l0.106-0.147l0.106-0.168l0.084-0.178l0.063-0.199l0.053-0.209l0.042-0.22l0.021-0.241l0.011-0.251l-0.011-0.262
		l-0.021-0.241l-0.042-0.23l-0.053-0.209L84.25,26.27l-0.084-0.178l-0.042-0.084l-0.053-0.073l-0.053-0.073l-0.063-0.063
		l-0.116-0.126l-0.137-0.115l-0.137-0.084l-0.158-0.084l-0.158-0.052l-0.169-0.042l-0.179-0.021l-0.19-0.01l-0.19,0.01l-0.18,0.021
		l-0.169,0.042l-0.158,0.063l-0.158,0.073l-0.137,0.084l-0.137,0.115l-0.127,0.126L81.4,25.862l-0.063,0.073l-0.042,0.084
		l-0.053,0.084l-0.084,0.168l-0.063,0.199l-0.053,0.209l-0.042,0.22l-0.021,0.241v0.262v0.262l0.021,0.251l0.042,0.23l0.053,0.209
		l0.063,0.199l0.084,0.178l0.053,0.084l0.042,0.073l0.063,0.073l0.053,0.073l0.127,0.126l0.127,0.105l0.148,0.094l0.148,0.084
		l0.148,0.052l0.169,0.042l0.169,0.031l0.179,0.01l0.137-0.01l0.127-0.021l0.127-0.021l0.127-0.042l-0.19-0.115l-0.201-0.105
		l-0.19-0.094l-0.201-0.073l0.359-0.723l0.148,0.063l0.158,0.063l0.148,0.063l0.148,0.084l0.148,0.084l0.148,0.084l0.148,0.094
		L83.955,29.014z"/>
	<polygon clip-path="url(#SVGID_2_)" fill="#0095D2" points="90.077,30.511 90.077,29.841 90.014,29.925 89.94,30.008 
		89.866,30.082 89.792,30.155 89.708,30.228 89.623,30.291 89.528,30.354 89.423,30.406 89.328,30.448 89.222,30.49 89.117,30.532 
		89.011,30.563 88.906,30.584 88.8,30.595 88.684,30.605 88.578,30.616 88.462,30.605 88.357,30.595 88.24,30.584 88.145,30.563 
		88.04,30.532 87.945,30.501 87.85,30.459 87.755,30.417 87.67,30.364 87.586,30.302 87.512,30.239 87.438,30.176 87.375,30.103 
		87.322,30.019 87.269,29.946 87.227,29.851 87.195,29.757 87.153,29.652 87.132,29.548 87.111,29.422 87.09,29.296 87.079,29.16 
		87.069,29.014 87.069,28.857 87.069,26.008 88.262,26.008 88.262,28.082 88.272,28.511 88.283,28.846 88.304,29.087 88.336,29.244 
		88.378,29.338 88.431,29.433 88.494,29.516 88.578,29.579 88.663,29.631 88.768,29.673 88.895,29.694 89.022,29.705 89.095,29.705 
		89.169,29.694 89.243,29.684 89.307,29.663 89.381,29.642 89.444,29.611 89.507,29.579 89.571,29.537 89.687,29.453 89.771,29.349 
		89.845,29.244 89.898,29.118 89.919,29.045 89.94,28.951 89.961,28.836 89.972,28.7 89.982,28.344 89.993,27.904 89.993,26.008 
		91.196,26.008 91.196,30.511 	"/>
	<path clip-path="url(#SVGID_2_)" fill="#0095D2" d="M93.698,27.38l-1.087-0.188l0.053-0.168l0.053-0.147l0.074-0.136l0.074-0.126
		l0.084-0.115l0.084-0.105l0.106-0.094l0.105-0.084l0.116-0.073l0.137-0.063l0.148-0.052l0.158-0.042l0.169-0.031l0.19-0.031
		l0.201-0.01l0.211-0.01l0.2,0.01h0.18l0.169,0.021l0.158,0.021l0.137,0.021l0.137,0.031l0.116,0.042l0.106,0.042l0.095,0.052
		l0.085,0.052l0.074,0.052l0.074,0.063l0.074,0.063l0.053,0.063l0.053,0.063l0.042,0.073l0.042,0.084l0.032,0.094l0.021,0.105
		l0.021,0.126l0.021,0.147l0.011,0.157l0.011,0.168v0.189l-0.011,1.393v0.272l0.011,0.241l0.021,0.199l0.021,0.157l0.042,0.147
		l0.042,0.147l0.063,0.157l0.074,0.157h-1.193l-0.021-0.063l-0.032-0.084l-0.021-0.094l-0.042-0.115l-0.021-0.084l-0.021-0.052
		l-0.148,0.136l-0.169,0.126l-0.169,0.094l-0.169,0.084l-0.179,0.073l-0.18,0.042l-0.19,0.031l-0.2,0.01l-0.169-0.01l-0.158-0.021
		l-0.158-0.021l-0.137-0.042l-0.137-0.052l-0.127-0.073l-0.106-0.073l-0.106-0.084l-0.095-0.105l-0.084-0.105l-0.074-0.105
		l-0.053-0.115l-0.042-0.126l-0.032-0.126l-0.021-0.136l-0.011-0.136l0.011-0.094v-0.094l0.021-0.094l0.021-0.084l0.021-0.084
		l0.032-0.084l0.042-0.073l0.042-0.073l0.042-0.073l0.053-0.073l0.063-0.063l0.063-0.063l0.063-0.052l0.074-0.052l0.074-0.042
		l0.074-0.042l0.19-0.073l0.222-0.073l0.253-0.073l0.296-0.063l0.391-0.073l0.317-0.073l0.264-0.073l0.19-0.073v-0.115V27.37
		l-0.011-0.073l-0.011-0.073L95.26,27.16l-0.021-0.063l-0.032-0.052l-0.032-0.042l-0.042-0.042l-0.042-0.031l-0.063-0.031
		l-0.063-0.021l-0.074-0.021l-0.084-0.021l-0.095-0.01h-0.106l-0.116-0.01l-0.148,0.01l-0.137,0.021l-0.063,0.021l-0.053,0.021
		l-0.053,0.031l-0.042,0.021l-0.042,0.042l-0.042,0.031l-0.042,0.052l-0.042,0.052l-0.063,0.115L93.698,27.38z M95.302,28.354
		l-0.127,0.031l-0.169,0.052l-0.2,0.042l-0.232,0.052l-0.222,0.052l-0.19,0.052l-0.137,0.052l-0.106,0.052l-0.053,0.042
		l-0.042,0.042l-0.042,0.052l-0.032,0.052l-0.032,0.052l-0.021,0.052l-0.011,0.063v0.063v0.063l0.011,0.052l0.021,0.063l0.021,0.052
		l0.021,0.052l0.032,0.052l0.042,0.052l0.042,0.042l0.053,0.042l0.042,0.042l0.063,0.031l0.053,0.021l0.063,0.021l0.063,0.01
		l0.074,0.01h0.063h0.084l0.074-0.01l0.084-0.01l0.074-0.031l0.084-0.021l0.074-0.042l0.074-0.042l0.074-0.052l0.095-0.084
		l0.085-0.094l0.063-0.105l0.042-0.105l0.021-0.094l0.011-0.136l0.011-0.157v-0.199V28.354z"/>
	<rect x="98.037" y="24.302" clip-path="url(#SVGID_2_)" fill="#0095D2" width="1.203" height="6.21"/>
	<path clip-path="url(#SVGID_2_)" fill="#0095D2" d="M100.834,24.302h1.203v1.099h-1.203V24.302z M100.834,26.008h1.203v4.503
		h-1.203V26.008z"/>
	<polygon clip-path="url(#SVGID_2_)" fill="#0095D2" points="105.711,26.008 105.711,26.961 104.898,26.961 104.898,28.773 
		104.898,29.024 104.898,29.213 104.908,29.338 104.919,29.412 104.93,29.453 104.961,29.495 104.982,29.537 105.025,29.569 
		105.067,29.59 105.12,29.611 105.172,29.621 105.225,29.621 105.32,29.621 105.436,29.6 105.563,29.558 105.711,29.506 
		105.816,30.438 105.711,30.48 105.595,30.511 105.489,30.543 105.362,30.563 105.246,30.584 105.12,30.605 104.993,30.605 
		104.866,30.616 104.708,30.605 104.56,30.584 104.412,30.553 104.286,30.501 104.159,30.448 104.053,30.375 103.969,30.302 
		103.895,30.228 103.842,30.134 103.79,30.019 103.758,29.893 103.726,29.757 103.716,29.631 103.695,29.443 103.695,29.213 
		103.695,28.919 103.695,26.961 103.135,26.961 103.135,26.008 103.695,26.008 103.695,25.118 104.898,24.417 104.898,26.008 	"/>
	<polygon clip-path="url(#SVGID_2_)" fill="#0095D2" points="106.344,26.008 107.621,26.008 108.709,29.202 109.775,26.008 
		111.01,26.008 109.416,30.344 109.12,31.129 109.047,31.307 108.973,31.474 108.899,31.611 108.825,31.726 108.751,31.831 
		108.667,31.914 108.582,31.998 108.498,32.061 108.392,32.124 108.286,32.176 108.17,32.228 108.033,32.26 107.896,32.291 
		107.748,32.323 107.59,32.333 107.421,32.333 107.252,32.333 107.083,32.323 106.914,32.291 106.745,32.26 106.64,31.338 
		106.777,31.359 106.904,31.37 107.03,31.38 107.146,31.391 107.252,31.38 107.347,31.37 107.431,31.349 107.516,31.328 
		107.59,31.296 107.653,31.255 107.716,31.202 107.769,31.139 107.864,31.014 107.938,30.867 108.012,30.7 108.075,30.522 	"/>
</g>
</svg>
