<?xml version="1.0" encoding="utf-8"?>
<!-- Generator: Adobe Illustrator 17.0.0, SVG Export Plug-In . SVG Version: 6.00 Build 0)  -->
<!DOCTYPE svg PUBLIC "-//W3C//DTD SVG 1.1//EN" "http://www.w3.org/Graphics/SVG/1.1/DTD/svg11.dtd">
<svg version="1.1" id="Layer_1" xmlns="http://www.w3.org/2000/svg" xmlns:xlink="http://www.w3.org/1999/xlink" x="0px" y="0px"
	 width="27.5px" height="22.224px" viewBox="0 0 27.5 22.224" enable-background="new 0 0 27.5 22.224" xml:space="preserve">
<path id="printer-5-icon_1_" fill="#FFFFFF" d="M23.929,5.874V0H3.571v5.874H0v13.55h3.468l2.648-5.262h15.375l2.596,5.262H27.5
	V5.874L23.929,5.874L23.929,5.874z M21.259,5.874H6.241V2.67h15.018V5.874z M24.852,9.262c-0.446,0-0.808-0.362-0.808-0.808
	c0-0.446,0.362-0.808,0.808-0.808c0.446,0,0.808,0.362,0.808,0.808C25.66,8.901,25.298,9.262,24.852,9.262z M19.806,16.698
	l2.593,5.526H5.156l2.647-5.526H19.806"/>
</svg>
