<?xml version="1.0" encoding="utf-8"?>
<!-- Generator: Adobe Illustrator 17.0.0, SVG Export Plug-In . SVG Version: 6.00 Build 0)  -->
<!DOCTYPE svg PUBLIC "-//W3C//DTD SVG 1.1//EN" "http://www.w3.org/Graphics/SVG/1.1/DTD/svg11.dtd">
<svg version="1.1" id="Layer_1" xmlns="http://www.w3.org/2000/svg" xmlns:xlink="http://www.w3.org/1999/xlink" x="0px" y="0px"
	 width="22.934px" height="19.825px" viewBox="0 0 22.934 19.825" enable-background="new 0 0 22.934 19.825" xml:space="preserve">
<path id="printer-5-icon_3_" fill="#002846" d="M18.323,6.488V2.476H4.417v4.012H1.977v9.256h2.369l1.809-3.594h10.503l1.773,3.594
	h2.331V6.488L18.323,6.488L18.323,6.488z M16.499,6.488H6.241V4.299h10.259V6.488z M18.954,8.803c-0.305,0-0.552-0.247-0.552-0.552
	c0-0.305,0.247-0.552,0.552-0.552c0.305,0,0.552,0.247,0.552,0.552C19.506,8.556,19.259,8.803,18.954,8.803z M15.507,13.882
	l1.771,3.775H5.5l1.808-3.775H15.507"/>
</svg>
